<?xml version="1.0" encoding="UTF-8"?>
<svg id="_图层_1" data-name="图层 1" xmlns="http://www.w3.org/2000/svg" viewBox="0 0 32 32">
  <defs>
    <style>
      .cls-1 {
        fill: none;
        stroke: #231815;
        stroke-miterlimit: 10;
        stroke-width: .75px;
      }
    </style>
  </defs>
  <path class="cls-1" d="M10.05,18.03c-.46-1.93-.92-3.86-1.39-5.8,1.9-.6,3.8-1.19,5.7-1.79,5.29,3.03,10.59,6.07,15.88,9.1.09.58.3,2.44-.79,4.37-1.25,2.23-3.35,2.97-3.84,3.14-5.19-3.01-10.38-6.02-15.57-9.03Z"/>
  <path class="cls-1" d="M2.99,10.22c-.72.78-1.51,1.76-1.27,2.12.09.13.44.37,3.69-.87,3.5-1.33,5.18-2.4,5.41-2.1.13.16-.16.76-2.22,2.82"/>
</svg>